<svg id="adobe-xd-1-logo-svgrepo-com" xmlns="http://www.w3.org/2000/svg" width="74.82" height="72.949" viewBox="0 0 74.82 72.949">
  <path id="Trazado_18" data-name="Trazado 18" d="M61.571,72.949H13.249A13.237,13.237,0,0,1,0,59.7V13.249A13.237,13.237,0,0,1,13.249,0H61.571A13.237,13.237,0,0,1,74.82,13.249V59.7A13.237,13.237,0,0,1,61.571,72.949Z" fill="#707070"/>
  <path id="Trazado_19" data-name="Trazado 19" d="M161.467,170.912H115.516A11.336,11.336,0,0,1,104.2,159.6V115.516A11.336,11.336,0,0,1,115.516,104.2h45.921a11.315,11.315,0,0,1,11.316,11.316v44.051a11.3,11.3,0,0,1-11.286,11.346Z" transform="translate(-101.081 -101.081)" fill="#3a3a3a"/>
  <path id="Trazado_20" data-name="Trazado 20" d="M482.306,609.194l8.73,16.772c.156.248.063.5-.189.5h-5.426a.611.611,0,0,1-.655-.4c-2-4.115-4.022-8.23-6.111-12.656h-.063c-1.871,4.178-3.93,8.574-5.923,12.689a.6.6,0,0,1-.563.344h-5.139c-.311,0-.344-.248-.186-.437l8.541-16.275-8.26-16.46a.252.252,0,0,1,.186-.437h5.363c.311,0,.437.063.56.344,1.963,4.115,3.959,8.356,5.83,12.5h.063c1.808-4.115,3.8-8.386,5.737-12.471.156-.248.248-.4.563-.4h5.019c.248,0,.344.189.189.437Zm10.259,5.082c0-7.263,4.833-12.938,12.5-12.938a13.739,13.739,0,0,1,1.622.063v-8.26a.311.311,0,0,1,.311-.311h4.926c.248,0,.311.093.311.248V621.7a22.272,22.272,0,0,0,.156,3.056c0,.189-.063.248-.248.344a18.56,18.56,0,0,1-7.982,1.808c-6.767.027-11.6-4.148-11.6-12.63Zm14.12-7.979a4.688,4.688,0,0,0-1.808-.311c-3.93,0-6.671,3.023-6.671,8.045,0,5.737,2.807,8.045,6.33,8.045a5.843,5.843,0,0,0,2.152-.344V606.3Z" transform="translate(-452.723 -575.059)" fill="#efece6"/>
</svg>
