<svg xmlns="http://www.w3.org/2000/svg" width="63.806" height="71.965" viewBox="0 0 63.806 71.965">
  <path id="css3-svgrepo-com" d="M58.07,64.238,63.806,0H0L.075.834,5.727,64.247l.048.528,25.886,7.191h.408l25.946-7.2.048-.528ZM31.958,14.03H50.5l-.558,6.477L31.65,28.639l.306,1.463H49.119L47.143,52.744,31.893,56.972,16.648,52.75l-.96-10.843h6.276l.5,5.5.048.534L31.767,50.4h.4l9.149-2.543.045-.531.864-10.153.069-.828H15.164l-.57-6.516,18.918-8.1-.3-1.469H13.781l-.555-6.237H31.937Z" fill="#3a3a3a"/>
</svg>
