<svg xmlns="http://www.w3.org/2000/svg" width="69.334" height="71.965" viewBox="0 0 69.334 71.965">
  <g id="XMLID_106_" transform="translate(-17.772)">
    <path id="XMLID_107_" d="M18.975,0a1.126,1.126,0,0,0-1.2,1.2l6.1,62.545a1.924,1.924,0,0,0,1.384,1.52l25.87,6.57a6.121,6.121,0,0,0,2.534,0l25.949-6.581a1.925,1.925,0,0,0,1.384-1.519L87.1,1.2A1.126,1.126,0,0,0,85.9,0ZM74.118,14.345c-.058.588-.157,1.608-.221,2.266l-.161,1.641c-.065.659-.157,1.6-.205,2.093s-.094.9-.1.9H41.435a1.126,1.126,0,0,0-1.2,1.2L40.8,28.2a1.425,1.425,0,0,0,1.432,1.2H71.477a1,1,0,0,1,1.065,1.068c-.059.588-.159,1.608-.223,2.266L70.507,51.306c-.065.659-.146,1.5-.182,1.87s-.635.817-1.332.994L53.707,58.047l-1.287.325c-.011,0-.59-.141-1.287-.318L35.83,54.17a1.924,1.924,0,0,1-1.384-1.519l-.985-10.112a1.127,1.127,0,0,1,1.2-1.2h6.109a1.425,1.425,0,0,1,1.432,1.2l.386,3.959a1.909,1.909,0,0,0,1.386,1.511l7.158,1.768,1.275.314,1.275-.314L60.851,48a1.911,1.911,0,0,0,1.387-1.511l.778-7.931a1.125,1.125,0,0,0-1.2-1.2H34.27a1.424,1.424,0,0,1-1.431-1.2L30.931,16.611c-.064-.659-.164-1.679-.221-2.266s.488-1.068,1.211-1.068H72.908C73.631,13.276,74.175,13.757,74.118,14.345Z" transform="translate(0)" fill="#3a3a3a"/>
  </g>
</svg>
