<svg xmlns="http://www.w3.org/2000/svg" width="69.334" height="69.334" viewBox="0 0 69.334 69.334">
  <path id="javascript-svgrepo-com" d="M0,0H69.334V69.334H0ZM63.654,52.8c-.506-3.163-2.565-5.821-8.675-8.3-2.126-1-4.489-1.69-5.191-3.293a3.411,3.411,0,0,1-.133-2.037c.433-1.866,2.643-2.427,4.377-1.907a4.7,4.7,0,0,1,2.82,2.6c2.987-1.953,2.987-1.953,5.07-3.25a11.923,11.923,0,0,0-1.693-2.253c-1.82-2.037-4.244-3.077-8.187-2.987L50,31.628a9.313,9.313,0,0,0-4.94,2.9,9.064,9.064,0,0,0,1.644,12.916c3.943,2.947,9.71,3.594,10.446,6.37.693,3.38-2.513,4.463-5.68,4.073-2.343-.52-3.64-1.693-5.07-3.86l-5.287,3.036a11.683,11.683,0,0,0,2.34,3.2c5.027,5.073,17.594,4.813,19.85-2.9a9.778,9.778,0,0,0,.214-4.767l.133.194ZM37.7,31.868H31.209c0,5.6-.026,11.163-.026,16.77,0,3.559.182,6.827-.4,7.832-.953,1.99-3.409,1.736-4.524,1.387a5.574,5.574,0,0,1-2.4-2.47,2.478,2.478,0,0,0-.367-.566l-5.272,3.25a10.218,10.218,0,0,0,3.825,4.382,12.714,12.714,0,0,0,9.265,1.17,8.114,8.114,0,0,0,5.232-4.076c1.473-2.687,1.161-5.98,1.147-9.666.035-5.934,0-11.871,0-17.851l.012-.162Z" fill="#3a3a3a"/>
</svg>
