<svg xmlns="http://www.w3.org/2000/svg" width="64.166" height="86.988" viewBox="0 0 64.166 86.988">
  <g id="java-svgrepo-com" transform="translate(-0.001 0.001)">
    <path id="Trazado_10" data-name="Trazado 10" d="M8.727,18.564S5.4,20.5,11.094,21.151a48.443,48.443,0,0,0,6.933.486A49.749,49.749,0,0,0,29.44,20.321l-.337.065a30.366,30.366,0,0,0,4.574,2.262l.214.072C16.863,30.02-4.647,22.3,8.731,18.56Z" transform="translate(11.934 48.709)"/>
    <path id="Trazado_11" data-name="Trazado 11" d="M8.518,15.933s-3.729,2.762,1.964,3.349a68.3,68.3,0,0,0,8.3.493,70.533,70.533,0,0,0,15.41-1.7l-.468.087a10.3,10.3,0,0,0,3.508,2.16l.072.022c-20.586,6.02-43.52.475-28.784-4.414Z" transform="translate(10.063 41.815)"/>
    <path id="Trazado_12" data-name="Trazado 12" d="M12.752,28.727c4.2,4.831-1.1,9.177-1.1,9.177S22.3,32.395,17.413,25.516C12.843,19.094,9.338,15.9,28.308,4.9,28.308,4.9-1.469,12.338,12.752,28.727Z" transform="translate(23.366 12.864)"/>
    <path id="Trazado_13" data-name="Trazado 13" d="M58.639,21.037s2.457,2.03-2.707,3.6c-9.829,2.979-40.907,3.878-49.544.12-3.1-1.352,2.718-3.226,4.545-3.617a11.554,11.554,0,0,1,2.805-.337h.2c-3.45-2.432-22.307,4.777-9.568,6.835,34.717,5.632,63.287-2.537,54.284-6.6Z" transform="translate(0 53.282)"/>
    <path id="Trazado_14" data-name="Trazado 14" d="M17.2,13.22s-15.809,3.755-5.6,5.117c2.751.228,5.958.355,9.191.355a120.431,120.431,0,0,0,12.221-.62l-.5.043c6.542-.551,13.113-1.74,13.113-1.74a27.3,27.3,0,0,0-4.081,2.193l.105-.065C25.593,22.727-5.416,20.763,3.511,16.442a29.5,29.5,0,0,1,13.533-3.236H17.2Z" transform="translate(5.056 34.659)"/>
    <path id="Trazado_15" data-name="Trazado 15" d="M14.207,29.671c16.317-8.481,8.774-16.628,3.5-15.534a11.956,11.956,0,0,0-1.953.529l.083-.025a2.98,2.98,0,0,1,1.374-1.069l.022-.007C27.654,9.9,35.67,24.369,13.874,30.092a1.433,1.433,0,0,0,.323-.417l0-.007Z" transform="translate(36.408 34.064)"/>
    <path id="Trazado_16" data-name="Trazado 16" d="M25.809,0s9.039,9.039-8.575,22.942c-14.12,11.152-3.222,17.509,0,24.776C8.992,40.283,2.943,33.737,7,27.641,12.957,18.7,29.458,14.362,25.809,0Z" transform="translate(14.97 0)"/>
    <path id="Trazado_17" data-name="Trazado 17" d="M15.983,29.693c15.657,1,39.722-.558,40.3-7.966,0,0-1.095,2.809-12.946,5.041a124.956,124.956,0,0,1-21.775,1.856A130.085,130.085,0,0,1,3,27.3l.692.083s2,1.66,12.3,2.32Z" transform="translate(7.882 57.02)"/>
  </g>
</svg>
