<svg xmlns="http://www.w3.org/2000/svg" width="70.238" height="82.644" viewBox="0 0 70.238 82.644">
  <path id="linux-svgrepo-com" d="M36.776,21.085a.268.268,0,0,1-.274.274h-.274c-.274,0-.274-.274-.547-.547a.955.955,0,0,1-.274-.547c0-.274,0-.274.274-.274l.547.274c.274.274.547.547.547.821Zm-4.926-2.737c0-1.368-.547-2.189-1.368-2.189a.268.268,0,0,1-.274.274v.547h.821c0,.547.274.821.274,1.368Zm9.578-1.368c.547,0,.821.547,1.095,1.368h.547a1,1,0,0,1-.274-.821,1,1,0,0,0-.274-.821c-.274-.274-.547-.547-.821-.547a.955.955,0,0,1-.547.274C41.155,16.707,41.429,16.707,41.429,16.981Zm-8.21,4.379c-.274,0-.274,0-.274-.274a1,1,0,0,1,.274-.821,1.2,1.2,0,0,0,.821-.274.268.268,0,0,1,.274.274c0,.274-.274.547-.821,1.095Zm-3.01-.274c-1.095-.547-1.368-1.368-1.368-2.737a2.309,2.309,0,0,1,.547-1.916,1.5,1.5,0,0,1,1.368-.821c.547,0,.821.274,1.368.821a7.99,7.99,0,0,1,.547,2.463v.547h.274V19.17c.274,0,.274-.547.274-1.642a4.067,4.067,0,0,0-.547-2.463A2.437,2.437,0,0,0,30.482,13.7a2.058,2.058,0,0,0-1.916,1.368,6.436,6.436,0,0,0-.657,3.284,4.484,4.484,0,0,0,1.478,3.284c.274-.274.547-.274.821-.547Zm34.2,38.581c.274,0,.274-.11.274-.357A2.976,2.976,0,0,0,63.59,57.2a6.67,6.67,0,0,0-3.831-1.559c-.274-.027-.547-.027-.547-.027a1.9,1.9,0,0,0-.547-.054c-.274-.027-.821-.083-1.095-.137a21.764,21.764,0,0,0,1.095-6.758,10.73,10.73,0,0,0-1.642-6.294,5.548,5.548,0,0,0-3.558-2.737c-.274.274-.274.274-.274.547a6.85,6.85,0,0,1,3.558,3.284,13.045,13.045,0,0,1,1.095,5.473,19.125,19.125,0,0,1-1.368,6.7,6.187,6.187,0,0,0-3.01,3.037c0,.247,0,.384.274.384a3.258,3.258,0,0,0,.547-.711c.547-.464.821-.931,1.368-1.4a4.075,4.075,0,0,1,2.189-.711,9.286,9.286,0,0,1,3.558.574A3.308,3.308,0,0,1,63.316,58q.41.616.821,1.148a.63.63,0,0,0,.274.52ZM39.239,19.991a2.051,2.051,0,0,1-.274-1.368,3.679,3.679,0,0,1,.547-2.463,2.365,2.365,0,0,1,1.642-.821,2.77,2.77,0,0,1,1.916,1.095,6.441,6.441,0,0,1,.547,2.189,2.2,2.2,0,0,1-1.642,2.463.955.955,0,0,0,.547.274c.547,0,.821.274,1.368.547a24.286,24.286,0,0,0,.547-4.1,6.21,6.21,0,0,0-.821-3.558,3.513,3.513,0,0,0-2.737-1.095,4.414,4.414,0,0,0-2.463.821A3.639,3.639,0,0,0,37.6,16.16a7.575,7.575,0,0,0,.821,3.558c.274,0,.547.274.821.274Zm3.284,4.379c-3.558,2.463-6.294,3.558-8.484,3.558a8.691,8.691,0,0,1-5.473-2.189,5.982,5.982,0,0,0,.821,1.368l1.642,1.642a5.4,5.4,0,0,0,3.831,1.642c1.916,0,4.1-1.095,6.842-3.01l2.463-1.642a2.77,2.77,0,0,0,1.095-1.916c0-.274,0-.547-.274-.547-.274-.547-1.642-1.368-4.379-2.189a15.988,15.988,0,0,0-5.473-1.642,10.19,10.19,0,0,0-4.1,1.642c-1.642,1.095-2.737,2.189-2.737,3.284a3.387,3.387,0,0,1,.547.821,7.937,7.937,0,0,0,4.926,2.189c2.189,0,4.926-1.095,8.484-3.831V24.1a.268.268,0,0,1,.274.274Zm6.292,55.272a5.852,5.852,0,0,0,6.842,2.844,3.564,3.564,0,0,0,1.368-.52c.274-.19.547-.384.821-.6a3.239,3.239,0,0,0,.821-.464l4.652-4.022a18.5,18.5,0,0,1,3.558-2.3,23.612,23.612,0,0,1,2.737-1.341,4.9,4.9,0,0,0,1.916-.985,2.826,2.826,0,0,0,.547-1.588,2.449,2.449,0,0,0-1.095-1.832A5.619,5.619,0,0,0,69.34,67.9a6.366,6.366,0,0,1-1.916-1.368,7.369,7.369,0,0,1-1.368-2.983l-.274-1.586c-.274-.738-.274-1.285-.547-1.588,0-.083,0-.11-.274-.11a1.5,1.5,0,0,0-1.095.711c-.547.464-1.095.985-1.642,1.532-.274.547-1.095,1.038-1.642,1.505a4.932,4.932,0,0,1-2.189.711c-2.189,0-3.284-.6-4.1-1.779a9.971,9.971,0,0,1-1.095-3.037c-.547-.464-.821-.711-1.368-.711-1.368,0-1.916,1.422-1.916,4.3V72a8.7,8.7,0,0,0-.274,1.642,9.611,9.611,0,0,0-.274,2.9l-.547,3.037v.046ZM9.139,78.184a44.935,44.935,0,0,1,8.784,2.382C21.234,81.772,23.26,82.4,24,82.4a5.97,5.97,0,0,0,4.816-2.487,4.05,4.05,0,0,0,.274-1.873q0-3.88-4.679-9.822l-1.862-2.49a25.89,25.89,0,0,1-1.449-2.38,23.2,23.2,0,0,0-1.505-2.463A7.429,7.429,0,0,0,17.923,59a5.613,5.613,0,0,0-2.436-1.258,3.71,3.71,0,0,0-2.326,1.121,3.359,3.359,0,0,0-.657,1.7,1.62,1.62,0,0,1-.52,1.148,5,5,0,0,1-1.368.437c-.137,0-.384,0-.738.027H9.139a7.02,7.02,0,0,0-2.954.437,4.016,4.016,0,0,0-1.041,2.653,12.6,12.6,0,0,0,.327,2.216A12.141,12.141,0,0,1,5.8,69.881a6.392,6.392,0,0,1-1.011,3.364A6.133,6.133,0,0,0,3.746,75.92c.274,1.062,2.079,1.808,5.39,2.246Zm9.111-24.879a17.053,17.053,0,0,1,1.505-6.431,18.025,18.025,0,0,1,2.927-5.2c-.054-.274-.19-.274-.41-.274L22,41.127A20.911,20.911,0,0,0,19.1,46.6,16.286,16.286,0,0,0,17.346,53a6.228,6.228,0,0,0,.848,3.228,19.3,19.3,0,0,0,4.352,3.885l2.9,1.889c3.091,2.683,4.733,4.542,4.733,5.637a2.24,2.24,0,0,1-1.095,1.779,2.586,2.586,0,0,1-1.916.985c-.054,0-.083.054-.083.19,0,.027.274.574.848,1.642,1.148,1.559,3.611,2.326,6.9,2.326a16.591,16.591,0,0,0,14.228-7.389,5.5,5.5,0,0,0-.274-2.573V63.592A7.7,7.7,0,0,1,49.6,59.6a2.171,2.171,0,0,1,1.916-1.285,2.707,2.707,0,0,1,1.642.6,41.439,41.439,0,0,0,.274-5.583,23.6,23.6,0,0,0-.547-6.458,14.424,14.424,0,0,0-1.368-4.1L49.877,40.3c-.547-.821-.821-1.642-1.368-2.463a11.761,11.761,0,0,1-.547-3.284c-.821-1.368-1.368-2.737-2.189-4.1-.547-1.368-1.095-2.737-1.642-3.831l-2.463,1.916c-2.737,1.916-4.926,2.737-6.842,2.737-1.642,0-3.01-.274-3.831-1.368l-1.642-1.368a7.135,7.135,0,0,1-.821,3.01L26.807,34.83a16.684,16.684,0,0,0-1.258,3.831,5.364,5.364,0,0,1-.247,1.095l-2.052,4.1c-2.216,4.1-3.338,7.907-3.338,11.054a11.816,11.816,0,0,0,.164,1.942A4.055,4.055,0,0,1,18.242,53.3ZM37.844,79.191a18.876,18.876,0,0,0-8.21,1.435v-.083a6.145,6.145,0,0,1-5.036,2.49A20.977,20.977,0,0,1,18.3,81.474a74.01,74.01,0,0,0-7.633-2.238c-.22-.062-.711-.156-1.505-.282-.767-.123-1.478-.25-2.106-.376a15.84,15.84,0,0,1-1.942-.561,4.851,4.851,0,0,1-1.642-.84,1.546,1.546,0,0,1-.563-1.17,4.046,4.046,0,0,1,.279-1.4c.174-.3.368-.6.558-.875a5.183,5.183,0,0,0,.464-.848,4.1,4.1,0,0,0,.384-.767,3.335,3.335,0,0,0,.274-.794,4.31,4.31,0,0,0,.11-.821c0-.274-.11-1.095-.327-2.543a24.236,24.236,0,0,1-.327-2.71A4.176,4.176,0,0,1,5.2,62.4,2.474,2.474,0,0,1,6.979,61.36h3.147a2.82,2.82,0,0,0,1.2-.464c.19-.437.357-.794.464-1.121.137-.327.19-.574.247-.684.054-.164.11-.327.164-.464A3.971,3.971,0,0,1,12.643,58a1.652,1.652,0,0,1-.327-1.068,2.836,2.836,0,0,1,.054-.738,9.884,9.884,0,0,1,1.449-4.215l.958-1.725a37.636,37.636,0,0,0,1.832-3.668,35.948,35.948,0,0,0,1.505-4.926,13.606,13.606,0,0,1,3.12-5.747l2.052-2.463a19.38,19.38,0,0,0,2.873-4.1,8.809,8.809,0,0,0,.794-3.558c0-.547-.137-2.189-.437-4.926-.274-2.737-.41-5.473-.41-7.936a17.546,17.546,0,0,1,.52-4.652,9.737,9.737,0,0,1,1.916-3.831A7.343,7.343,0,0,1,32.1,1.7,18.193,18.193,0,0,1,37.847.88a7.577,7.577,0,0,1,2.463.274,9.461,9.461,0,0,1,3.284.821A11.3,11.3,0,0,1,46.6,3.89a12.275,12.275,0,0,1,2.737,3.558,26.615,26.615,0,0,1,1.368,5.473c.274,1.368.274,2.737.547,4.652,0,1.642.274,2.737.274,3.558.274.821.274,1.916.547,3.284a9.8,9.8,0,0,0,1.095,3.01,20.412,20.412,0,0,0,1.916,3.284c.821,1.368,1.916,2.737,3.01,4.379a27.461,27.461,0,0,1,5.473,8.755,22.988,22.988,0,0,1,2.189,10.1,18.592,18.592,0,0,1-.821,5.5,1.2,1.2,0,0,1,1.095.6,7.663,7.663,0,0,1,.821,2.49l.274,2.026A3.217,3.217,0,0,0,68.5,66.224a6.046,6.046,0,0,0,1.916,1.231A8.944,8.944,0,0,1,72.329,68.6a2.432,2.432,0,0,1,.821,1.722,2.657,2.657,0,0,1-.821,2.106,4.294,4.294,0,0,1-1.916,1.178c-.547.274-1.642.821-3.284,1.594a29.91,29.91,0,0,0-4.1,2.954l-2.737,2.329a15.211,15.211,0,0,1-3.01,2.3,5.974,5.974,0,0,1-3.01.738l-1.916-.22a6.244,6.244,0,0,1-4.379-3.338,93.421,93.421,0,0,0-10.126-.794Z" transform="translate(-2.912 -0.88)" fill="#444"/>
</svg>
