<svg xmlns="http://www.w3.org/2000/svg" width="82.292" height="55.893" viewBox="0 0 82.292 55.893">
  <path id="mysql-svgrepo-com" d="M56.254,11.03a3.577,3.577,0,0,0-.939.121v.041h.041a8.423,8.423,0,0,0,.736.939c.188.363.347.736.522,1.1l.054-.054a1.279,1.279,0,0,0,.483-1.139c-.134-.162-.162-.334-.28-.483-.134-.229-.429-.347-.617-.522ZM19.782,56.274H16.609c-.108-5.357-.429-10.395-.923-15.122H15.66L10.825,56.274H8.4L3.6,41.153H3.563c-.347,4.526-.576,9.577-.669,15.122H0Q.283,46.148,1.408,37.308H5.345l4.58,13.931h.026l4.621-13.931h3.75Q19.568,47.677,19.8,56.274Zm13.769-14c-1.286,7.018-3,12.123-5.1,15.3-1.661,2.451-3.469,3.683-5.439,3.683a5.3,5.3,0,0,1-1.942-.483V59.088a9.586,9.586,0,0,0,1.327.093,3.245,3.245,0,0,0,2.225-.764,2.781,2.781,0,0,0,1.006-2.075,13.3,13.3,0,0,0-.79-3.24L21.367,42.279h3.122l2.492,8.091a10.572,10.572,0,0,1,.7,3.858,51.826,51.826,0,0,0,2.867-11.948Zm42.271,14H66.8V37.308h3.04V53.944h5.987Zm-11.385.458-3.482-1.715a6.674,6.674,0,0,0,.872-.856c1.486-1.728,2.225-4.313,2.225-7.715q0-9.424-7.394-9.415a7.011,7.011,0,0,0-5.653,2.384c-1.474,1.741-2.225,4.313-2.225,7.7,0,3.335.656,5.773,1.97,7.34a6.8,6.8,0,0,0,5.439,2.1,8.589,8.589,0,0,0,2.479-.334l4.542,2.651,1.245-2.142Zm-11.29-4.261C52.371,51.239,52,49.256,52,46.522q0-7.171,4.354-7.165A3.671,3.671,0,0,1,59.7,41.073c.764,1.245,1.152,3.2,1.152,5.907,0,4.809-1.461,7.234-4.354,7.234A3.692,3.692,0,0,1,53.135,52.5Zm-5.681-1.445a4.953,4.953,0,0,1-1.782,3.95,6.925,6.925,0,0,1-4.742,1.553,9.516,9.516,0,0,1-5.4-1.769l.818-1.633a9.229,9.229,0,0,0,4.086,1.126,4.3,4.3,0,0,0,2.68-.751,2.609,2.609,0,0,0,1.031-2.117c0-1.126-.79-2.091-2.225-2.893-1.327-.736-3.991-2.25-3.991-2.25A4.541,4.541,0,0,1,35.786,42.2a4.684,4.684,0,0,1,1.607-3.711,6.023,6.023,0,0,1,4.179-1.432,8.665,8.665,0,0,1,4.809,1.407l-.736,1.633A9.317,9.317,0,0,0,42,39.3a3.265,3.265,0,0,0-2.25.71,2.343,2.343,0,0,0-.844,1.8c0,1.126.8,2.091,2.276,2.919,1.353.736,4.071,2.291,4.071,2.291a4.472,4.472,0,0,1,2.225,4ZM79.628,30.948a10.574,10.574,0,0,0-4.446.656c-.334.134-.885.134-.939.563.188.188.213.483.375.736A5.382,5.382,0,0,0,75.812,34.3c.483.375.964.751,1.461,1.072.9.55,1.9.872,2.785,1.42.5.321,1.006.736,1.5,1.072.255.175.414.483.736.589v-.067c-.162-.2-.2-.5-.363-.736-.229-.229-.455-.429-.684-.656a10.833,10.833,0,0,0-2.384-2.317c-.736-.5-2.343-1.193-2.639-2.037l-.041-.054a9.213,9.213,0,0,0,1.566-.363c.777-.2,1.5-.162,2.3-.363.363-.093.723-.2,1.1-.321v-.2c-.414-.414-.723-.977-1.152-1.366a29.948,29.948,0,0,0-3.778-2.813,26.3,26.3,0,0,0-2.4-1.152c-.267-.134-.736-.2-.885-.429a9.041,9.041,0,0,1-.952-1.769c-.656-1.26-1.3-2.651-1.875-3.991A23.922,23.922,0,0,0,68.948,17.2a23.107,23.107,0,0,0-8.867-8.571,11.035,11.035,0,0,0-2.934-.939c-.576-.026-1.139-.067-1.715-.093a7.788,7.788,0,0,1-1.057-.8c-1.312-.831-4.688-2.613-5.64-.255-.617,1.5.91,2.96,1.448,3.711a12,12,0,0,1,1.165,1.715c.162.4.2.818.363,1.232A26.414,26.414,0,0,0,52.9,16.266a10.7,10.7,0,0,0,.844,1.42c.188.255.509.363.576.777a6.41,6.41,0,0,0-.522,1.715,10.128,10.128,0,0,0,.656,7.715c.375.576,1.245,1.836,2.412,1.353,1.031-.414.8-1.715,1.1-2.867.067-.28.026-.455.162-.643v.054c.334.643.656,1.26.952,1.9a12.674,12.674,0,0,0,2.973,3.068c.55.414.977,1.126,1.661,1.378v-.067h-.054a2.765,2.765,0,0,0-.522-.455,12.856,12.856,0,0,1-1.206-1.378,30.409,30.409,0,0,1-2.559-4.166c-.375-.723-.7-1.5-.99-2.209-.134-.267-.134-.684-.363-.818a7.414,7.414,0,0,0-1.1,1.553,13,13,0,0,0-.656,3.456c-.08.026-.041,0-.08.054-.736-.188-.99-.939-1.26-1.582a9.884,9.884,0,0,1-.213-6.121c.162-.483.844-2,.576-2.451-.147-.442-.6-.7-.844-1.044a8.623,8.623,0,0,1-.831-1.461c-.55-1.286-.818-2.705-1.42-3.991a11.8,11.8,0,0,0-1.139-1.754A10.725,10.725,0,0,1,49.8,7.924c-.121-.255-.28-.669-.093-.939.041-.188.134-.255.321-.309.3-.255,1.152.067,1.448.213a11.1,11.1,0,0,1,2.263,1.139,4.172,4.172,0,0,0,1.085.777h.483c.736.162,1.553.041,2.237.255a14.8,14.8,0,0,1,3.307,1.566,20.478,20.478,0,0,1,7.139,7.849c.28.522.4,1.006.656,1.553.468,1.139,1.072,2.276,1.553,3.361a14.706,14.706,0,0,0,1.633,3.081c.347.483,1.715.736,2.343.977.455.213,1.165.4,1.566.643.79.483,1.566,1.031,2.3,1.566.375.255,1.515.831,1.582,1.286Z" transform="translate(-0.001 -5.365)" fill="#3a3a3a"/>
</svg>
