<svg xmlns="http://www.w3.org/2000/svg" width="77.279" height="68.788" viewBox="0 0 77.279 68.788">
  <g id="react-svgrepo-com" transform="translate(-0.004 0.005)">
    <path id="Trazado_6" data-name="Trazado 6" d="M24.894,16.47a6.906,6.906,0,1,1-6.906-6.906A6.906,6.906,0,0,1,24.894,16.47Z" transform="translate(20.667 17.852)"/>
    <path id="Trazado_7" data-name="Trazado 7" d="M38.652,38.012c-.576.014-1.255.023-1.937.023a78.168,78.168,0,0,1-23.134-3.479l.553.146A31.194,31.194,0,0,1,3.987,29.249l.06.046a9.783,9.783,0,0,1-4.04-7.069l0-.037C0,17.62,5.01,13.15,13.418,10.233A77.843,77.843,0,0,1,37.5,6.5q.6,0,1.195.009h-.06c.332-.006.722-.009,1.115-.009A78.771,78.771,0,0,1,64.1,10.327l-.559-.158a31.687,31.687,0,0,1,9.838,5.2l-.069-.052a9.382,9.382,0,0,1,3.972,6.84l0,.037c0,4.745-5.6,9.548-14.623,12.534A77.648,77.648,0,0,1,40.036,38.02c-.487,0-.971-.006-1.456-.014h.072Zm0-28.2c-.3-.006-.665-.006-1.026-.006A77.182,77.182,0,0,0,13.959,13.5l.547-.152c-7.731,2.7-11.2,6.385-11.2,8.846,0,2.559,3.728,6.591,11.9,9.382a73.571,73.571,0,0,0,21.529,3.149q1.01,0,2.012-.026l-.1,0c.418.009.911.014,1.4.014a75.8,75.8,0,0,0,22.108-3.275l-.536.14c8.482-2.82,12.379-6.852,12.379-9.4a6.438,6.438,0,0,0-2.768-4.341l-.023-.014a28.1,28.1,0,0,0-8.511-4.51l-.2-.057A74.555,74.555,0,0,0,39.81,9.8c-.407,0-.811,0-1.215.009h.06Z" transform="translate(0 12.128)"/>
    <path id="Trazado_8" data-name="Trazado 8" d="M13.256,68.743l-.152,0a7.214,7.214,0,0,1-3.568-.937l.037.02c-3.949-2.292-5.324-8.86-3.668-17.6a79.21,79.21,0,0,1,9.583-24.071l-.2.355A79.823,79.823,0,0,1,30.837,6.824l.057-.052A31.358,31.358,0,0,1,40.027.961l.209-.077A9.218,9.218,0,0,1,44.219,0a9.345,9.345,0,0,1,4.012.9L48.174.872C52.286,3.239,53.65,10.5,51.721,19.8a79.584,79.584,0,0,1-9.348,22.807l.2-.352A79.038,79.038,0,0,1,27.484,61.8l-.04.037A31.155,31.155,0,0,1,17.927,67.8l-.212.075a13.056,13.056,0,0,1-4.439.874h-.017Zm3.453-41.4,1.43.825a75.464,75.464,0,0,0-8.9,22.18l-.1.516C7.614,58.914,9.087,63.754,11.2,64.981a4,4,0,0,0,1.883.461c.057,0,.117,0,.175,0h-.009c2.737,0,7.044-1.734,12.024-6.081A75.646,75.646,0,0,0,39.525,41.007l.195-.387a74.709,74.709,0,0,0,8.668-20.939l.109-.522c1.8-8.763.246-14.127-1.966-15.411a6.308,6.308,0,0,0-2.3-.424,6.436,6.436,0,0,0-2.9.688L41.371,4a28.248,28.248,0,0,0-8.33,5.29l.02-.017A76.247,76.247,0,0,0,18.343,27.8l-.2.378Z" transform="translate(9.727)"/>
    <path id="Trazado_9" data-name="Trazado 9" d="M44.578,68.728c-3.742,0-8.482-2.255-13.44-6.522A79.646,79.646,0,0,1,15.481,42.622l-.206-.393A77.525,77.525,0,0,1,6.062,19.376l-.1-.53a30.8,30.8,0,0,1-.731-6.754,32.01,32.01,0,0,1,.309-4.445l-.02.166A9.374,9.374,0,0,1,9.449.939l.029-.02c4.1-2.378,11.076.069,18.174,6.385A79.85,79.85,0,0,1,42.317,26.045l.206.4a76.708,76.708,0,0,1,9.29,22.346l.109.533a30.681,30.681,0,0,1,.736,6.763,31.6,31.6,0,0,1-.373,4.86l.023-.178A9.8,9.8,0,0,1,48.215,67.8l-.032.02a6.978,6.978,0,0,1-3.459.906c-.052,0-.1,0-.155,0h.009ZM18.135,40.579a77.559,77.559,0,0,0,15.1,19.073l.057.052c6.207,5.339,11.13,6.493,13.262,5.255,2.215-1.278,3.837-6.522,2.161-15a75.213,75.213,0,0,0-9.224-22.183l.186.321A76.714,76.714,0,0,0,25.5,9.808l-.034-.032c-6.688-5.943-12.107-7.279-14.322-6A6.4,6.4,0,0,0,8.781,8.341v.02a27.218,27.218,0,0,0-.246,3.72,28.237,28.237,0,0,0,.711,6.307L9.208,18.2a75.684,75.684,0,0,0,9.118,22.707l-.189-.335Z" transform="translate(9.746 0.056)"/>
  </g>
</svg>
