<svg xmlns="http://www.w3.org/2000/svg" width="62.266" height="46.463" viewBox="0 0 62.266 46.463">
  <path id="sass-svgrepo-com" d="M62.5,37.5a6.307,6.307,0,0,0-2.553-4.312,9.4,9.4,0,0,0-5.565-1.88,12.562,12.562,0,0,0-4.839.747c-.445.161-.882.351-1.33.532-.06-.109-.123-.212-.175-.322A9,9,0,0,1,46.9,29.344a6.521,6.521,0,0,1-.012-2.289c.175-.729.405-1.445.619-2.166a.526.526,0,0,0-.32-.745,1.437,1.437,0,0,0-.391-.129,6.034,6.034,0,0,0-2.567.191.735.735,0,0,0-.58.584c-.038.189-.115.369-.167.556a13.939,13.939,0,0,1-.731,2.305c-.891,1.854-1.906,3.637-2.948,5.408-.113.191-.23.379-.373.612a8.015,8.015,0,0,1-.874-2.255,6.931,6.931,0,0,1-.012-2.72c.169-.673.389-1.334.592-2a.461.461,0,0,0-.234-.647,1.382,1.382,0,0,0-.471-.183,5.767,5.767,0,0,0-2.657.218.721.721,0,0,0-.494.54,20.937,20.937,0,0,1-.788,2.44c-1.378,3.157-2.794,6.3-4.209,9.437-.3.655-.641,1.289-.975,1.926a4.637,4.637,0,0,1-.312.457.371.371,0,0,1-.117-.236,6.449,6.449,0,0,1,.032-1.209c.232-1.179.5-2.355.784-3.524.232-.965.5-1.922.764-2.883a.9.9,0,0,0-.143-.891,1.33,1.33,0,0,0-1.678-.2c-.052.038-.113.064-.212.121.018-.153.028-.248.042-.343a5.358,5.358,0,0,0-.079-2.19,1.743,1.743,0,0,0-1.829-1.392,3.932,3.932,0,0,0-1.3.246,9.792,9.792,0,0,0-4.112,3.26,1.271,1.271,0,0,1-.375.324c-1.435.8-2.877,1.582-4.316,2.373l-1.6.878c-.429-.411-.82-.836-1.265-1.2-1.354-1.1-2.73-2.18-4.092-3.272A16.154,16.154,0,0,1,6.229,27.49a5.807,5.807,0,0,1-1.136-3.175,7.461,7.461,0,0,1,1.138-4.152,15.95,15.95,0,0,1,3.778-4.134,34.819,34.819,0,0,1,4.968-3.3,37.479,37.479,0,0,1,7.618-3.363,21.056,21.056,0,0,1,8.42-.957,8.636,8.636,0,0,1,3.24.941,3.343,3.343,0,0,1,1.7,1.844,4.612,4.612,0,0,1,.079,2.583,9.863,9.863,0,0,1-2.579,4.493,17.413,17.413,0,0,1-7.124,4.513,19.543,19.543,0,0,1-4.846,1.034,9.112,9.112,0,0,1-3.963-.478,5.157,5.157,0,0,1-2.184-1.483c-.107-.125-.242-.258-.441-.143a.375.375,0,0,0-.163.486,4.666,4.666,0,0,0,.379.911,5.211,5.211,0,0,0,1.729,1.638,8.468,8.468,0,0,0,4.3,1.179,21.613,21.613,0,0,0,6.776-.864,16.627,16.627,0,0,0,8.132-4.906,12.487,12.487,0,0,0,3.435-7.158,6.921,6.921,0,0,0-.647-3.943A6.954,6.954,0,0,0,35.73,6.1a14.618,14.618,0,0,0-6.117-1.515H27.475a25.5,25.5,0,0,0-7.517,1.553,51.571,51.571,0,0,0-5.394,2.3A34.825,34.825,0,0,0,4.281,15.776,15.308,15.308,0,0,0,.89,21.123c-.206.6-.334,1.235-.482,1.854-.012.052.046.1-.081.153V24a2.461,2.461,0,0,1,.2.671,9.8,9.8,0,0,0,2.1,3.846,25.288,25.288,0,0,0,4.725,4.161c1.483,1.066,2.988,2.109,4.477,3.167.256.181.492.391.77.614-.238.129-.439.242-.645.347a34.432,34.432,0,0,0-5.6,3.469,11.466,11.466,0,0,0-2.784,2.815,6.06,6.06,0,0,0-.7,5.837,3.448,3.448,0,0,0,1.175,1.515,1.714,1.714,0,0,0,.576.3c.524.123,1.06.2,1.592.3h1.5a9.359,9.359,0,0,0,4.549-1.664,9.988,9.988,0,0,0,4.2-6,10.6,10.6,0,0,0-.062-5.535c-.05-.171-.111-.338-.177-.5s-.141-.326-.23-.532l3.413-1.964c.018.014.034.03.052.044-.062.2-.127.405-.185.612a13.821,13.821,0,0,0-.578,4.525,8.691,8.691,0,0,0,1.519,4.541,2.2,2.2,0,0,0,3.447.038,7.941,7.941,0,0,0,.788-1.247c.556-1.15,1.072-2.319,1.6-3.48.024-.05.044-.1.093-.212-.038.55-.083,1.032-.1,1.517a5.781,5.781,0,0,0,.27,2.224,1.53,1.53,0,0,0,1.3,1.154,1.632,1.632,0,0,0,1.219-.445,5.138,5.138,0,0,0,1.336-1.588c.943-1.733,1.912-3.455,2.768-5.232.925-1.922,1.733-3.9,2.593-5.853.048-.107.089-.216.143-.347.2.8.345,1.578.606,2.319a21.556,21.556,0,0,0,1.086,2.51.751.751,0,0,1-.1.957c-1.12,1.35-2.22,2.716-3.322,4.082a9.019,9.019,0,0,0-.689.937,1.816,1.816,0,0,0-.238.677.862.862,0,0,0,.687.979,4.773,4.773,0,0,0,1.344.1,7.887,7.887,0,0,0,4.167-1.567A4.369,4.369,0,0,0,40.95,37.37a10.93,10.93,0,0,0-.471-1.527.565.565,0,0,1,.062-.6,48.436,48.436,0,0,0,3.385-5.742,1.217,1.217,0,0,1,.151-.24,14.91,14.91,0,0,0,1.711,4.86c-.453.437-.9.832-1.306,1.269a8.718,8.718,0,0,0-2.071,3.274,3.884,3.884,0,0,0-.23,1.692,1.425,1.425,0,0,0,1.759,1.293,8,8,0,0,0,4.771-2.94,3.867,3.867,0,0,0,.546-3.53c-.093-.341-.2-.677-.324-1.07.473-.147.933-.322,1.408-.431a12.485,12.485,0,0,1,7.3.427,5.5,5.5,0,0,1,3.179,2.766A3.189,3.189,0,0,1,59.6,41.2a2.849,2.849,0,0,0-.439.3.43.43,0,0,0-.1.332c.01.062.173.137.264.137a2.42,2.42,0,0,0,1.346-.556,4.053,4.053,0,0,0,1.842-2.887c0-.036-.048-.069.079-.1V37.6c-.127-.034-.073-.068-.077-.1ZM14.145,40.854a7.878,7.878,0,0,1-2.807,5.46,6.383,6.383,0,0,1-3.212,1.6,2.371,2.371,0,0,1-1.338-.093,1.365,1.365,0,0,1-.768-1.4,5.056,5.056,0,0,1,.754-2.573,9.19,9.19,0,0,1,2.353-2.583,36.078,36.078,0,0,1,4.6-3.1,1.063,1.063,0,0,1,.121-.05,8.074,8.074,0,0,1,.3,2.734Zm12.488-9.619a16.778,16.778,0,0,1-.469,2.1,62.088,62.088,0,0,1-2.621,6.935,11.761,11.761,0,0,1-.681,1.2.861.861,0,0,1-.141.167c-.286.284-.56.268-.7-.1a7.8,7.8,0,0,1-.361-1.348,7.046,7.046,0,0,1-.064-.941A11.8,11.8,0,0,1,23.446,33.1a5.783,5.783,0,0,1,1.785-2.013,3.215,3.215,0,0,1,.792-.351c.421-.119.681.077.612.5Zm8.52,10.854,3.062-3.576C38.341,39.842,36.086,42.492,35.153,42.089Zm9.78-2.4c-.216.123-.453.214-.675.328-.2.105-.27,0-.276-.175a1.21,1.21,0,0,1,.046-.357,7.676,7.676,0,0,1,2.307-3.715.393.393,0,0,1,.079-.042,3.279,3.279,0,0,1-1.483,3.961Z" transform="translate(-0.326 -4.582)" fill="#444"/>
</svg>
