<svg id="Capa_1" data-name="Capa 1" xmlns="http://www.w3.org/2000/svg" xmlns:xlink="http://www.w3.org/1999/xlink" viewBox="0 0 284.15 285"><defs><style>.cls-1{fill:none;}.cls-2{fill:#fff;stroke:#909090ee;stroke-linecap:round;stroke-miterlimit:10;stroke-width:3px;}.cls-3{fill:url(#lineskkk);}</style><pattern id="lineskkk" data-name="lineskkk" width="285.15" height="290.97" patternUnits="userSpaceOnUse" viewBox="0 0 285.15 290.97"><rect class="cls-1" width="285.15" height="290.97"/><line class="cls-2" x1="5.93" y1="298.08" x2="20.49" y2="291.47"/><line class="cls-2" x1="285.49" y1="140.52" x2="303.96" y2="144.38"/><line class="cls-2" x1="121.84" y1="123.98" x2="136.4" y2="144.38"/><line class="cls-2" x1="30.57" y1="19.79" x2="33.93" y2="51.77"/><line class="cls-2" x1="79.28" y1="35.78" x2="76.48" y2="45.7"/><line class="cls-2" x1="103.36" y1="62.79" x2="136.4" y2="87.05"/><line class="cls-2" x1="83.2" y1="111.3" x2="68.09" y2="140.52"/><line class="cls-2" x1="250.62" y1="51.77" x2="277.5" y2="25.31"/><line class="cls-2" x1="266.3" y1="144.38" x2="272.21" y2="157.61"/><line class="cls-2" x1="111.2" y1="178.01" x2="138.64" y2="178.01"/><line class="cls-2" x1="177.33" y1="134.18" x2="181.88" y2="161.81"/><line class="cls-2" x1="163.27" y1="33.02" x2="169.99" y2="40.74"/><line class="cls-2" x1="210.87" y1="74.92" x2="177.33" y2="98.62"/><line class="cls-2" x1="154.31" y1="102.48" x2="186.79" y2="120.12"/><line class="cls-2" x1="204.15" y1="111.3" x2="200.23" y2="128.39"/><line class="cls-2" x1="22.73" y1="87.05" x2="33.93" y2="114.06"/><line class="cls-2" x1="0.34" y1="140.52" x2="18.81" y2="144.38"/><line class="cls-2" x1="3.13" y1="189.58" x2="37.85" y2="178.01"/><line class="cls-2" x1="50.73" y1="156.09" x2="59.13" y2="167.53"/><line class="cls-2" x1="79.28" y1="179.66" x2="91.04" y2="211.63"/><line class="cls-2" x1="98.88" y1="142.45" x2="107.28" y2="157.61"/><line class="cls-2" x1="230.46" y1="150.03" x2="257.9" y2="108"/><line class="cls-2" x1="194.1" y1="9.87" x2="227.66" y2="25.31"/><path class="cls-2" d="M127.44,25.31S151.51,8.77,163.27,7.12"/><line class="cls-2" x1="54.93" y1="4.91" x2="91.04" y2="16.21"/><line class="cls-2" x1="5.93" y1="7.12" x2="20.49" y2="0.5"/><line class="cls-2" x1="148.15" y1="216.59" x2="190.71" y2="211.63"/><line class="cls-2" x1="215.91" y1="167.53" x2="227.66" y2="198.95"/><line class="cls-2" x1="22.73" y1="232.58" x2="54.93" y2="251.32"/><line class="cls-2" x1="111.2" y1="251.32" x2="129.12" y2="223.21"/><line class="cls-2" x1="202.19" y1="234.29" x2="215.91" y2="232.58"/><line class="cls-2" x1="257.9" y1="214.11" x2="221.78" y2="260.14"/><line class="cls-2" x1="257.9" y1="255.18" x2="284.22" y2="251.32"/><line class="cls-2" x1="157.11" y1="260.14" x2="174.47" y2="268.41"/><line class="cls-2" x1="96.08" y1="264.28" x2="103.36" y2="285.5"/><line class="cls-2" x1="54.93" y1="82.09" x2="91.04" y2="89.8"/><line class="cls-2" x1="3.13" y1="71.61" x2="3.13" y2="87.05"/><line class="cls-2" x1="170.55" y1="186.27" x2="190.71" y2="179.66"/><line class="cls-2" x1="28.33" y1="209.43" x2="50.73" y2="209.43"/><line class="cls-2" x1="20.49" y1="268.41" x2="37.85" y2="290.47"/><line class="cls-2" x1="-27.25" y1="255.18" x2="-0.94" y2="251.32"/><line class="cls-2" x1="20.49" y1="-22.56" x2="37.85" y2="-0.5"/></pattern></defs><rect class="cls-3" width="284.15" height="285"/></svg>